<?xml version="1.0" standalone="no"?><!DOCTYPE svg PUBLIC "-//W3C//DTD SVG 1.1//EN" "http://www.w3.org/Graphics/SVG/1.1/DTD/svg11.dtd"><svg xmlns:xlink="http://www.w3.org/1999/xlink" xmlns="http://www.w3.org/2000/svg" version="1.1" width="1536" height="400"><defs><clipPath id="highcharts-10"><rect rx="0" ry="0" fill="none" x="0" y="0" width="9999" height="400" stroke-width="0.000001"></rect></clipPath><clipPath id="highcharts-11"><rect fill="none" x="0" y="0" width="1238" height="328"></rect></clipPath></defs><rect rx="5" ry="5" fill="#FFFFFF" x="0" y="0" width="1536" height="400" stroke-width="0.000001"></rect><path fill="none" d="M 74 313.5 L 1312 313.5" stroke="#808080" stroke-width="1"></path><g class="highcharts-grid" ></g><g class="highcharts-grid" ><path fill="none" d="M 74 313.5 L 1312 313.5" stroke="#C0C0C0" stroke-width="1" ></path><path fill="none" d="M 74 259.5 L 1312 259.5" stroke="#C0C0C0" stroke-width="1" ></path><path fill="none" d="M 74 204.5 L 1312 204.5" stroke="#C0C0C0" stroke-width="1" ></path><path fill="none" d="M 74 149.5 L 1312 149.5" stroke="#C0C0C0" stroke-width="1" ></path><path fill="none" d="M 74 95.5 L 1312 95.5" stroke="#C0C0C0" stroke-width="1" ></path><path fill="none" d="M 74 40.5 L 1312 40.5" stroke="#C0C0C0" stroke-width="1" ></path><path fill="none" d="M 74 368.5 L 1312 368.5" stroke="#C0C0C0" stroke-width="1" ></path></g><g class="highcharts-axis" ><path fill="none" d="M 486.5 368 L 486.5 373" stroke="#C0D0E0" stroke-width="1"></path><path fill="none" d="M 692.5 368 L 692.5 373" stroke="#C0D0E0" stroke-width="1"></path><path fill="none" d="M 898.5 368 L 898.5 373" stroke="#C0D0E0" stroke-width="1"></path><path fill="none" d="M 1105.5 368 L 1105.5 373" stroke="#C0D0E0" stroke-width="1"></path><path fill="none" d="M 1311.5 368 L 1311.5 373" stroke="#C0D0E0" stroke-width="1"></path><path fill="none" d="M 279.5 368 L 279.5 373" stroke="#C0D0E0" stroke-width="1"></path><path fill="none" d="M 74 368.5 L 1312 368.5" stroke="#C0D0E0" stroke-width="1"  visibility="visible"></path></g><g class="highcharts-axis" ><text x="27.933300018310547" y="204" style="font-family:'lucida grande', 'lucida sans unicode', verdana, arial, helvetica, sans-serif;font-size:12px;color:#6d869f;font-weight:bold;fill:#6d869f;"  transform="rotate(270 27.933300018310547 204)" text-anchor="middle" visibility="visible"><tspan x="27.933300018310547">Max Nodes in Queue</tspan></text></g><g class="highcharts-series-group" ><g class="highcharts-series" visibility="visible"  transform="translate(74,40)" clip-path="url(#highcharts-11)"><path fill="none" d="M 103.16666666666667 273.3 L 309.5 273.3 L 515.8333333333334 273.3 L 722.1666666666666 273.3 L 928.5 218.7 L 1134.8333333333335 54.7" stroke="black" stroke-width="5"   stroke-opacity="0.049999999999999996" transform="translate(1, 1)"></path><path fill="none" d="M 103.16666666666667 273.3 L 309.5 273.3 L 515.8333333333334 273.3 L 722.1666666666666 273.3 L 928.5 218.7 L 1134.8333333333335 54.7" stroke="black" stroke-width="3"   stroke-opacity="0.09999999999999999" transform="translate(1, 1)"></path><path fill="none" d="M 103.16666666666667 273.3 L 309.5 273.3 L 515.8333333333334 273.3 L 722.1666666666666 273.3 L 928.5 218.7 L 1134.8333333333335 54.7" stroke="black" stroke-width="1"   stroke-opacity="0.15" transform="translate(1, 1)"></path><path fill="none" d="M 103.16666666666667 273.3 L 309.5 273.3 L 515.8333333333334 273.3 L 722.1666666666666 273.3 L 928.5 218.7 L 1134.8333333333335 54.7" stroke="#4572A7" stroke-width="2" ></path></g><g class="highcharts-markers" visibility="visible"  transform="translate(74,40)" clip-path="none"><path fill="#4572A7" d="M 1134.8333333333335 50.7 C 1140.1613333333335 50.7 1140.1613333333335 58.7 1134.8333333333335 58.7 C 1129.5053333333335 58.7 1129.5053333333335 50.7 1134.8333333333335 50.7 Z" stroke="#FFFFFF" stroke-width="0.000001"></path><path fill="#4572A7" d="M 928.5 214.7 C 933.828 214.7 933.828 222.7 928.5 222.7 C 923.172 222.7 923.172 214.7 928.5 214.7 Z" stroke="#FFFFFF" stroke-width="0.000001"></path><path fill="#4572A7" d="M 722.1666666666666 269.3 C 727.4946666666666 269.3 727.4946666666666 277.3 722.1666666666666 277.3 C 716.8386666666667 277.3 716.8386666666667 269.3 722.1666666666666 269.3 Z" stroke="#FFFFFF" stroke-width="0.000001"></path><path fill="#4572A7" d="M 515.8333333333334 269.3 C 521.1613333333333 269.3 521.1613333333333 277.3 515.8333333333334 277.3 C 510.5053333333334 277.3 510.5053333333334 269.3 515.8333333333334 269.3 Z" stroke="#FFFFFF" stroke-width="0.000001"></path><path fill="#4572A7" d="M 309.5 269.3 C 314.828 269.3 314.828 277.3 309.5 277.3 C 304.172 277.3 304.172 269.3 309.5 269.3 Z" stroke="#FFFFFF" stroke-width="0.000001"></path><path fill="#4572A7" d="M 103.16666666666667 269.3 C 108.49466666666667 269.3 108.49466666666667 277.3 103.16666666666667 277.3 C 97.83866666666667 277.3 97.83866666666667 269.3 103.16666666666667 269.3 Z" stroke="#FFFFFF" stroke-width="0.000001"></path></g><g class="highcharts-series" visibility="visible"  transform="translate(74,40)" clip-path="url(#highcharts-11)"><path fill="none" d="M 103.16666666666667 273.3 L 309.5 273.3 L 515.8333333333334 273.3 L 722.1666666666666 273.3 L 928.5 262.3 L 1134.8333333333335 54.7" stroke="black" stroke-width="5"   stroke-opacity="0.049999999999999996" transform="translate(1, 1)"></path><path fill="none" d="M 103.16666666666667 273.3 L 309.5 273.3 L 515.8333333333334 273.3 L 722.1666666666666 273.3 L 928.5 262.3 L 1134.8333333333335 54.7" stroke="black" stroke-width="3"   stroke-opacity="0.09999999999999999" transform="translate(1, 1)"></path><path fill="none" d="M 103.16666666666667 273.3 L 309.5 273.3 L 515.8333333333334 273.3 L 722.1666666666666 273.3 L 928.5 262.3 L 1134.8333333333335 54.7" stroke="black" stroke-width="1"   stroke-opacity="0.15" transform="translate(1, 1)"></path><path fill="none" d="M 103.16666666666667 273.3 L 309.5 273.3 L 515.8333333333334 273.3 L 722.1666666666666 273.3 L 928.5 262.3 L 1134.8333333333335 54.7" stroke="#AA4643" stroke-width="2" ></path></g><g class="highcharts-markers" visibility="visible"  transform="translate(74,40)" clip-path="none"><path fill="#AA4643" d="M 1134.8333333333335 50.7 L 1138.8333333333335 54.7 1134.8333333333335 58.7 1130.8333333333335 54.7 Z" stroke="#FFFFFF" stroke-width="0.000001"></path><path fill="#AA4643" d="M 928.5 258.3 L 932.5 262.3 928.5 266.3 924.5 262.3 Z" stroke="#FFFFFF" stroke-width="0.000001"></path><path fill="#AA4643" d="M 722.1666666666666 269.3 L 726.1666666666666 273.3 722.1666666666666 277.3 718.1666666666666 273.3 Z" stroke="#FFFFFF" stroke-width="0.000001"></path><path fill="#AA4643" d="M 515.8333333333334 269.3 L 519.8333333333334 273.3 515.8333333333334 277.3 511.83333333333337 273.3 Z" stroke="#FFFFFF" stroke-width="0.000001"></path><path fill="#AA4643" d="M 309.5 269.3 L 313.5 273.3 309.5 277.3 305.5 273.3 Z" stroke="#FFFFFF" stroke-width="0.000001"></path><path fill="#AA4643" d="M 103.16666666666667 269.3 L 107.16666666666667 273.3 103.16666666666667 277.3 99.16666666666667 273.3 Z" stroke="#FFFFFF" stroke-width="0.000001"></path></g><g class="highcharts-series" visibility="visible"  transform="translate(74,40)" clip-path="url(#highcharts-11)"><path fill="none" d="M 103.16666666666667 273.3 L 309.5 273.3 L 515.8333333333334 273.3 L 722.1666666666666 273.3 L 928.5 272 L 1134.8333333333335 54.7" stroke="black" stroke-width="5"   stroke-opacity="0.049999999999999996" transform="translate(1, 1)"></path><path fill="none" d="M 103.16666666666667 273.3 L 309.5 273.3 L 515.8333333333334 273.3 L 722.1666666666666 273.3 L 928.5 272 L 1134.8333333333335 54.7" stroke="black" stroke-width="3"   stroke-opacity="0.09999999999999999" transform="translate(1, 1)"></path><path fill="none" d="M 103.16666666666667 273.3 L 309.5 273.3 L 515.8333333333334 273.3 L 722.1666666666666 273.3 L 928.5 272 L 1134.8333333333335 54.7" stroke="black" stroke-width="1"   stroke-opacity="0.15" transform="translate(1, 1)"></path><path fill="none" d="M 103.16666666666667 273.3 L 309.5 273.3 L 515.8333333333334 273.3 L 722.1666666666666 273.3 L 928.5 272 L 1134.8333333333335 54.7" stroke="#89A54E" stroke-width="2" ></path></g><g class="highcharts-markers" visibility="visible"  transform="translate(74,40)" clip-path="none"><path fill="#89A54E" d="M 1130.8333333333335 50.7 L 1138.8333333333335 50.7 1138.8333333333335 58.7 1130.8333333333335 58.7 Z" stroke="#FFFFFF" stroke-width="0.000001"></path><path fill="#89A54E" d="M 924.5 268 L 932.5 268 932.5 276 924.5 276 Z" stroke="#FFFFFF" stroke-width="0.000001"></path><path fill="#89A54E" d="M 718.1666666666666 269.3 L 726.1666666666666 269.3 726.1666666666666 277.3 718.1666666666666 277.3 Z" stroke="#FFFFFF" stroke-width="0.000001"></path><path fill="#89A54E" d="M 511.83333333333337 269.3 L 519.8333333333334 269.3 519.8333333333334 277.3 511.83333333333337 277.3 Z" stroke="#FFFFFF" stroke-width="0.000001"></path><path fill="#89A54E" d="M 305.5 269.3 L 313.5 269.3 313.5 277.3 305.5 277.3 Z" stroke="#FFFFFF" stroke-width="0.000001"></path><path fill="#89A54E" d="M 99.16666666666667 269.3 L 107.16666666666667 269.3 107.16666666666667 277.3 99.16666666666667 277.3 Z" stroke="#FFFFFF" stroke-width="0.000001"></path></g></g><text x="748" y="25" style="font-family:'lucida grande', 'lucida sans unicode', verdana, arial, helvetica, sans-serif;font-size:16px;color:#3e576f;fill:#3e576f;" text-anchor="middle" class="highcharts-title" ><tspan x="748">Max Nodes in Queue</tspan></text><g class="highcharts-legend"  transform="translate(1322,110)"><g  clip-path="url(#highcharts-10)"><g><g class="highcharts-legend-item"  transform="translate(8,3)"><path fill="none" d="M 0 11 L 16 11" stroke-width="2" stroke="#4572A7"></path><path fill="#4572A7" d="M 8 7 C 13.328 7 13.328 15 8 15 C 2.6719999999999997 15 2.6719999999999997 7 8 7 Z" stroke="#FFFFFF" stroke-width="0.000001"></path><text x="21" y="15" style="font-family:'lucida grande', 'lucida sans unicode', verdana, arial, helvetica, sans-serif;font-size:12px;cursor:pointer;color:#3e576f;fill:#3e576f;" text-anchor="start" ><tspan x="21">Uniform Cost Search</tspan></text></g><g class="highcharts-legend-item"  transform="translate(8,21.399999618530273)"><path fill="none" d="M 0 11 L 16 11" stroke-width="2" stroke="#AA4643"></path><path fill="#AA4643" d="M 8 7 L 12 11 8 15 4 11 Z" stroke="#FFFFFF" stroke-width="0.000001"></path><text x="21" y="15" style="font-family:'lucida grande', 'lucida sans unicode', verdana, arial, helvetica, sans-serif;font-size:12px;cursor:pointer;color:#3e576f;fill:#3e576f;" text-anchor="start" ><tspan x="21">Misplaced Tile Heuristic</tspan></text></g><g class="highcharts-legend-item"  transform="translate(8,39.79999923706055)"><path fill="none" d="M 0 11 L 16 11" stroke-width="2" stroke="#89A54E"></path><path fill="#89A54E" d="M 4 7 L 12 7 12 15 4 15 Z" stroke="#FFFFFF" stroke-width="0.000001"></path><text x="21" y="15" style="font-family:'lucida grande', 'lucida sans unicode', verdana, arial, helvetica, sans-serif;font-size:12px;cursor:pointer;color:#3e576f;fill:#3e576f;" text-anchor="start" ><tspan x="21">Euclidean Distance Heuristic</tspan></text></g></g></g></g><g class="highcharts-axis-labels" ><text x="177.16666666666669" y="382" style="font-family:'lucida grande', 'lucida sans unicode', verdana, arial, helvetica, sans-serif;font-size:11px;width:186px;color:#666;line-height:14px;fill:#666;" text-anchor="middle"><tspan x="177.16666666666669">Trivial</tspan></text><text x="383.5" y="382" style="font-family:'lucida grande', 'lucida sans unicode', verdana, arial, helvetica, sans-serif;font-size:11px;width:186px;color:#666;line-height:14px;fill:#666;" text-anchor="middle"><tspan x="383.5"> Very Easy</tspan></text><text x="589.8333333333334" y="382" style="font-family:'lucida grande', 'lucida sans unicode', verdana, arial, helvetica, sans-serif;font-size:11px;width:186px;color:#666;line-height:14px;fill:#666;" text-anchor="middle"><tspan x="589.8333333333334"> Easy</tspan></text><text x="796.1666666666667" y="382" style="font-family:'lucida grande', 'lucida sans unicode', verdana, arial, helvetica, sans-serif;font-size:11px;width:186px;color:#666;line-height:14px;fill:#666;" text-anchor="middle"><tspan x="796.1666666666667"> Doable</tspan></text><text x="1002.5000000000001" y="382" style="font-family:'lucida grande', 'lucida sans unicode', verdana, arial, helvetica, sans-serif;font-size:11px;width:186px;color:#666;line-height:14px;fill:#666;" text-anchor="middle"><tspan x="1002.5000000000001"> Oh Boy</tspan></text><text x="1208.8333333333335" y="382" style="font-family:'lucida grande', 'lucida sans unicode', verdana, arial, helvetica, sans-serif;font-size:11px;width:186px;color:#666;line-height:14px;fill:#666;" text-anchor="middle"><tspan x="1208.8333333333335"> Impossible</tspan></text></g><g class="highcharts-axis-labels" ><text x="66" y="317.53333276112875" style="font-family:'lucida grande', 'lucida sans unicode', verdana, arial, helvetica, sans-serif;font-size:11px;width:599px;color:#666;line-height:14px;fill:#666;" text-anchor="end"><tspan x="66">0k</tspan></text><text x="66" y="98.86666609446209" style="font-family:'lucida grande', 'lucida sans unicode', verdana, arial, helvetica, sans-serif;font-size:11px;width:599px;color:#666;line-height:14px;fill:#666;" text-anchor="end"><tspan x="66">100k</tspan></text><text x="66" y="372.19999942779543" style="font-family:'lucida grande', 'lucida sans unicode', verdana, arial, helvetica, sans-serif;font-size:11px;width:599px;color:#666;line-height:14px;fill:#666;" text-anchor="end"><tspan x="66">-25k</tspan></text><text x="66" y="262.8666660944621" style="font-family:'lucida grande', 'lucida sans unicode', verdana, arial, helvetica, sans-serif;font-size:11px;width:599px;color:#666;line-height:14px;fill:#666;" text-anchor="end"><tspan x="66">25k</tspan></text><text x="66" y="208.1999994277954" style="font-family:'lucida grande', 'lucida sans unicode', verdana, arial, helvetica, sans-serif;font-size:11px;width:599px;color:#666;line-height:14px;fill:#666;" text-anchor="end"><tspan x="66">50k</tspan></text><text x="66" y="153.53333276112875" style="font-family:'lucida grande', 'lucida sans unicode', verdana, arial, helvetica, sans-serif;font-size:11px;width:599px;color:#666;line-height:14px;fill:#666;" text-anchor="end"><tspan x="66">75k</tspan></text><text x="66" y="44.19999942779541" style="font-family:'lucida grande', 'lucida sans unicode', verdana, arial, helvetica, sans-serif;font-size:11px;width:599px;color:#666;line-height:14px;fill:#666;" text-anchor="end"><tspan x="66">125k</tspan></text></g><g class="highcharts-tooltip"  style="padding:0;white-space:nowrap;" visibility="hidden"><rect rx="5" ry="5" fill="none" x="0" y="0" width="10" height="10" stroke-width="5" fill-opacity="0.85"  stroke="black" stroke-opacity="0.049999999999999996" transform="translate(1, 1)"></rect><rect rx="5" ry="5" fill="none" x="0" y="0" width="10" height="10" stroke-width="3" fill-opacity="0.85"  stroke="black" stroke-opacity="0.09999999999999999" transform="translate(1, 1)"></rect><rect rx="5" ry="5" fill="none" x="0" y="0" width="10" height="10" stroke-width="1" fill-opacity="0.85"  stroke="black" stroke-opacity="0.15" transform="translate(1, 1)"></rect><rect rx="5" ry="5" fill="rgb(255,255,255)" x="0" y="0" width="10" height="10" stroke-width="2" fill-opacity="0.85"></rect><text x="5" y="18" style="font-family:'lucida grande', 'lucida sans unicode', verdana, arial, helvetica, sans-serif;font-size:12px;color:#333333;fill:#333333;" ></text></g><text x="1526" y="395" style="font-family:'lucida grande', 'lucida sans unicode', verdana, arial, helvetica, sans-serif;font-size:10px;cursor:pointer;color:#909090;fill:#909090;" text-anchor="end" ><tspan x="1526">Highcharts.com</tspan></text><g class="highcharts-tracker" ><g visibility="visible"  transform="translate(74,40)" clip-path="url(#highcharts-11)"><path fill="none" d="M 93.16666666666667 273.3 L 103.16666666666667 273.3 L 309.5 273.3 L 515.8333333333334 273.3 L 722.1666666666666 273.3 L 928.5 218.7 L 1134.8333333333335 54.7 L 1144.8333333333335 54.7"  stroke-linejoin="round" visibility="visible" stroke-opacity="0.0001" stroke="rgb(192,192,192)" stroke-width="22" style=""></path></g><g visibility="visible"  transform="translate(74,40)" clip-path="url(#highcharts-11)"><path fill="none" d="M 93.16666666666667 273.3 L 103.16666666666667 273.3 L 309.5 273.3 L 515.8333333333334 273.3 L 722.1666666666666 273.3 L 928.5 262.3 L 1134.8333333333335 54.7 L 1144.8333333333335 54.7"  stroke-linejoin="round" visibility="visible" stroke-opacity="0.0001" stroke="rgb(192,192,192)" stroke-width="22" style=""></path></g><g visibility="visible"  transform="translate(74,40)" clip-path="url(#highcharts-11)"><path fill="none" d="M 93.16666666666667 273.3 L 103.16666666666667 273.3 L 309.5 273.3 L 515.8333333333334 273.3 L 722.1666666666666 273.3 L 928.5 272 L 1134.8333333333335 54.7 L 1144.8333333333335 54.7"  stroke-linejoin="round" visibility="visible" stroke-opacity="0.0001" stroke="rgb(192,192,192)" stroke-width="22" style=""></path></g></g></svg>